HIERARCHY
ROOT Hips
{
    OFFSET 0.000000 0.000000 0.000000
    CHANNELS 6 Xposition Yposition Zposition Zrotation Xrotation Yrotation
    JOINT Spine
    {
        OFFSET -0.000000 7.856138 0.000000
        CHANNELS 3 Zrotation Xrotation Yrotation
        JOINT Spine1
        {
            OFFSET -0.000000 20.830866 0.000000
            CHANNELS 3 Zrotation Xrotation Yrotation
            JOINT Neck
            {
                OFFSET -0.000000 20.745317 1.885938
                CHANNELS 3 Zrotation Xrotation Yrotation
                JOINT Head
                {
                    OFFSET -0.000000 13.412918 -1.916131
                    CHANNELS 3 Zrotation Xrotation Yrotation
                    End Site
                    {
                        OFFSET -0.000000 23.951641 0.000000
                    }
                }
            }
            JOINT LeftShoulder
            {
                OFFSET 3.826675 19.078362 -0.073511
                CHANNELS 3 Zrotation Xrotation Yrotation
                JOINT LeftArm
                {
                    OFFSET 10.442133 0.000000 0.000000
                    CHANNELS 3 Zrotation Xrotation Yrotation
                    JOINT LeftForeArm
                    {
                        OFFSET 37.051945 0.000000 0.000000
                        CHANNELS 3 Zrotation Xrotation Yrotation
                        JOINT LeftHand
                        {
                            OFFSET 24.394852 0.000000 0.000000
                            CHANNELS 3 Zrotation Xrotation Yrotation
                            End Site
                            {
                                OFFSET 14.370985 0.000000 0.000000
                            }
                        }
                    }
                }
            }
            JOINT RightShoulder
            {
                OFFSET -3.827599 19.078362 -0.073511
                CHANNELS 3 Zrotation Xrotation Yrotation
                JOINT RightArm
                {
                    OFFSET -10.442133 0.000000 0.000000
                    CHANNELS 3 Zrotation Xrotation Yrotation
                    JOINT RightForeArm
                    {
                        OFFSET -37.051945 0.000000 0.000000
                        CHANNELS 3 Zrotation Xrotation Yrotation
                        JOINT RightHand
                        {
                            OFFSET -24.394852 0.000000 0.000000
                            CHANNELS 3 Zrotation Xrotation Yrotation
                            End Site
                            {
                                OFFSET -14.370985 0.000000 0.000000
                            }
                        }
                    }
                }
            }
        }
    }
    JOINT LeftUpLeg
    {
        OFFSET 9.580656 0.000000 0.000000
        CHANNELS 3 Zrotation Xrotation Yrotation
        JOINT LeftLeg
        {
            OFFSET -0.000000 -43.769192 0.000000
            CHANNELS 3 Zrotation Xrotation Yrotation
            JOINT LeftFoot
            {
                OFFSET -0.000000 -42.531967 0.000000
                CHANNELS 3 Zrotation Xrotation Yrotation
                JOINT LeftToeBase
                {
                    OFFSET -0.000000 -6.227426 14.370985
                    CHANNELS 3 Zrotation Xrotation Yrotation
                    End Site
                    {
                        OFFSET -0.000000 0.000000 3.832262
                    }
                }
            }
        }
    }
    JOINT RightUpLeg
    {
        OFFSET -9.580656 0.000000 0.000000
        CHANNELS 3 Zrotation Xrotation Yrotation
        JOINT RightLeg
        {
            OFFSET -0.000000 -43.769192 0.000000
            CHANNELS 3 Zrotation Xrotation Yrotation
            JOINT RightFoot
            {
                OFFSET -0.000000 -42.531967 0.000000
                CHANNELS 3 Zrotation Xrotation Yrotation
                JOINT RightToeBase
                {
                    OFFSET -0.000000 -6.227426 14.370985
                    CHANNELS 3 Zrotation Xrotation Yrotation
                    End Site
                    {
                        OFFSET -0.000000 0.000000 3.832262
                    }
                }
            }
        }
    }
}
MOTION
Frames:    8
Frame Time:    0.008333
-8.184540    93.345222    26.110312    -0.598765    -0.541360    89.616844    -1.870533    -10.351851    0.192623    5.095814    11.412642    -0.147328    1.301180    1.906476    -0.812442    2.241893    -0.163866    -0.693551    -7.395933    12.442275    9.424663    -38.754288    32.286140    -20.097067    10.608968    -11.410968    -34.534260    11.296481    -6.630565    15.413079    -3.009130    12.415907    -0.133831    41.717480    20.629982    19.355793    -1.862978    -13.171527    19.309334    -8.963787    -12.502293    -4.710489    3.720114    3.019669    0.064799    -3.399462    2.959180    0.395763    1.467837    -7.238461    23.210871    0.000000    0.000000    0.000000    -4.073252    -1.740515    0.028502    3.134872    8.598861    0.479218    1.129406    -7.990629    -14.191988    0.000000    0.000000    0.000000    
-8.189607    93.339119    26.115238    -0.606196    -0.554117    89.764511    -2.085946    -10.463008    0.261291    5.399657    11.754864    -0.103853    1.226595    1.607870    -1.056999    2.482558    -0.237613    -0.905265    -8.022399    12.986011    9.380075    -40.384491    33.533592    -21.111462    9.693976    -11.919136    -33.995472    11.182408    -7.421419    16.160168    -2.616273    12.985868    -0.309833    42.825726    23.785505    19.927336    -2.062173    -13.973280    19.964216    -7.708985    -13.296053    -4.952130    3.745518    2.955175    -0.005863    -3.397220    3.022987    0.335483    1.494076    -7.262980    23.193096    0.000000    0.000000    0.000000    -4.057480    -1.743299    -0.059425    3.132798    8.635862    0.489815    1.099193    -8.027033    -14.247862    0.000000    0.000000    0.000000    
-8.169283    93.341408    26.109838    -0.621205    -0.513077    89.741707    -2.185163    -10.563552    0.330813    5.490105    11.913828    -0.040444    1.181652    1.534561    -1.174394    2.603629    -0.346325    -1.002227    -8.289116    13.217582    9.378934    -41.142399    34.269089    -21.591169    9.122201    -12.352491    -33.666386    11.459786    -7.981132    16.584309    -2.456131    13.211479    -0.406594    43.561623    25.102848    20.219511    -1.905668    -14.422128    20.272343    -8.449455    -13.706468    -5.370798    3.693333    2.970212    0.031830    -3.384319    2.996886    0.337946    1.464582    -7.243971    23.178041    0.000000    0.000000    0.000000    -4.106334    -1.759966    0.005662    3.151572    8.657893    0.458847    1.075054    -8.054317    -14.262971    0.000000    0.000000    0.000000    
-8.183344    93.335220    26.109320    -0.653854    -0.490443    89.737335    -2.233684    -10.596710    0.389920    5.528635    11.999164    0.015622    1.025353    1.458130    -1.290214    2.911492    -0.451616    -1.054876    -8.518699    13.418441    9.379953    -41.804222    35.082195    -22.034929    8.537955    -12.860255    -33.466717    11.997388    -8.549587    17.150831    -2.310822    13.457190    -0.512207    44.049328    26.630703    20.617180    -1.774107    -14.890597    20.578457    -8.062600    -14.197481    -5.585097    3.668595    2.921424    0.083200    -3.382616    3.009460    0.316399    1.462366    -7.248402    23.167532    0.000000    0.000000    0.000000    -4.130960    -1.830469    0.032998    3.154105    8.718925    0.483977    1.039353    -8.102337    -14.299064    0.000000    0.000000    0.000000    
-8.179593    93.328690    26.115608    -0.657711    -0.498987    89.810059    -2.267333    -10.628306    0.407739    5.570637    12.095569    0.027972    0.972330    1.407331    -1.396297    3.057203    -0.598628    -1.133281    -8.777176    13.641444    9.378271    -42.352688    35.916336    -22.533112    7.806321    -13.443237    -33.241402    12.891219    -9.136145    18.071924    -2.139457    13.668035    -0.560912    44.588787    28.212124    20.907763    -1.766488    -15.556775    20.919498    -7.836626    -14.838422    -6.099975    3.687356    2.902380    0.074702    -3.383358    3.029914    0.270129    1.469198    -7.281612    23.150169    0.000000    0.000000    0.000000    -4.123410    -1.819237    0.045066    3.172144    8.723257    0.474654    0.990854    -8.134474    -14.367738    0.000000    0.000000    0.000000    
-8.175557    93.325211    26.116234    -0.661645    -0.491178    89.860527    -2.278827    -10.681493    0.438271    5.552452    12.239805    0.055545    0.956480    1.335977    -1.471832    3.160407    -0.752656    -1.190918    -8.919427    13.810191    9.356078    -42.891060    36.890614    -23.052368    7.144806    -14.114221    -32.966297    13.610796    -9.848001    18.645018    -1.941700    13.901494    -0.604448    44.976074    29.929161    21.322294    -1.701195    -16.402143    21.298964    -8.037864    -15.641573    -6.701062    3.679222    2.891872    0.065792    -3.379347    3.024987    0.256308    1.439710    -7.306990    23.169275    0.000000    0.000000    0.000000    -4.123895    -1.826162    0.026590    3.158620    8.750159    0.410700    1.007662    -8.164644    -14.325775    0.000000    0.000000    0.000000    
-8.183714    93.319099    26.120735    -0.670990    -0.490618    89.930725    -2.314440    -10.683798    0.464996    5.591791    12.311181    0.078004    0.907167    1.255948    -1.578292    3.270967    -0.889407    -1.275297    -9.055447    13.986560    9.283345    -43.366734    37.877922    -23.462465    6.400161    -15.020462    -33.004356    13.620578    -11.017365    18.355709    -1.778305    14.166777    -0.678136    45.383549    31.575895    21.639378    -1.865742    -17.237267    21.843067    -7.522086    -16.438171    -7.212828    3.685811    2.857738    0.056285    -3.377414    3.044723    0.221429    1.496473    -7.289441    23.118456    0.000000    0.000000    0.000000    -4.125980    -1.846486    0.015316    3.167633    8.792804    0.442900    0.975096    -8.209322    -14.408103    0.000000    0.000000    0.000000    
-8.213441    93.305824    26.131386    -0.703483    -0.487750    89.985481    -2.385035    -10.634403    0.513962    5.655913    12.297210    0.126175    0.952897    1.308902    -1.680169    3.267436    -1.243930    -1.377834    -9.189348    14.174383    9.206473    -43.653393    38.994225    -24.007221    5.760569    -15.702041    -32.921921    14.285616    -11.675410    19.296232    -1.554905    14.385626    -0.733726    45.734020    33.130692    21.891020    -1.763770    -18.219746    22.469496    -7.863340    -17.348740    -8.196612    3.699697    2.769969    0.070912    -3.383911    3.107087    0.169259    1.543793    -7.327937    23.098932    0.000000    0.000000    0.000000    -4.118035    -1.923513    0.020306    3.164130    8.864708    0.413260    0.943924    -8.278441    -14.425369    0.000000    0.000000    0.000000    
